<?xml version="1.0" encoding="UTF-8"?>
<svg id="Layer_1" data-name="Layer 1" xmlns="http://www.w3.org/2000/svg" viewBox="0 0 150.08 122.06">
  <g>
    <path d="M8.73,112.61s.06-.02,.11-.03c.06-.01,.11,0,.16-.02,.06,0,.12,0,.18,0,.07,0,.13,0,.18,0,.1,0,.22,.03,.34,.05,.14,.02,.28,.07,.43,.1,.16,.05,.32,.09,.47,.13,.17,.05,.31,.11,.45,.17,.11,.04,.24,.11,.38,.17,.14,.06,.29,.15,.42,.23,.14,.09,.27,.2,.38,.29,.11,.11,.22,.21,.28,.33,.05,.12,.08,.24,.1,.35,.02,.13-.02,.27-.09,.43-.09,.16-.22,.34-.39,.52-.2,.18-.45,.38-.78,.61-.03,.03-.09,.05-.16,.1-.07,.04-.14,.09-.21,.13-.08,.05-.12,.09-.18,.12-.06,.03-.07,.05-.07,.06,0,.02,.05,.04,.15,.06,.09,0,.22,.02,.38,.04,.15,.01,.32,.02,.5,.04,.21,0,.4,0,.61,.02,.25,0,.49,.02,.71,.04,.21,.01,.39,.05,.54,.08,.16,.03,.29,.07,.38,.13,.1,.05,.18,.11,.22,.2,.09,.13,.11,.26,.1,.36,0,.12-.05,.22-.14,.32-.07,.11-.2,.21-.33,.32-.16,.11-.35,.22-.57,.35-.38,.22-.67,.38-.86,.51-.21,.12-.3,.2-.28,.23,0,.03,.1,.07,.21,.1,.14,.04,.3,.06,.53,.09,.21,.03,.45,.06,.74,.08,.26,.02,.56,.04,.87,.05,.09,0,.18,0,.3,.01,.09,0,.21,0,.32,0,.11,.01,.22,.02,.33,.03,.11,0,.2,.01,.27,.03,.11,0,.19,.03,.27,.09,.09,.06,.14,.12,.19,.2,.06,.12,.08,.23,.09,.34,0,.11-.05,.22-.11,.31-.06,.1-.14,.2-.24,.29-.12,.09-.22,.15-.36,.22-.11,.07-.22,.11-.31,.16-.1,.05-.21,.09-.31,.12-.1,.04-.2,.08-.33,.12-.11,.04-.24,.1-.38,.14-.14,.03-.25,.1-.4,.16-.14,.06-.27,.12-.4,.19-.14,.05-.26,.11-.37,.14-.12,.05-.22,.09-.3,.1-.06,.02-.13,.03-.18,.03-.08,0-.14,0-.21-.02-.08,0-.14-.05-.21-.11-.07-.04-.13-.12-.18-.22-.04-.08-.05-.16-.06-.22,0-.09,.04-.14,.08-.2,.03-.07,.08-.12,.15-.16,.07-.05,.15-.1,.23-.15,.06-.03,.15-.06,.29-.11,.13-.05,.27-.09,.43-.14,.16-.03,.32-.09,.5-.13,.16-.06,.33-.1,.48-.14,.15-.05,.29-.09,.42-.12,.13-.04,.22-.06,.29-.09-.02,0-.04,0-.11,0-.06,0-.12-.01-.22,0-.09,0-.18,0-.28-.01-.1,0-.19,0-.28-.01-.09,0-.15,0-.23,0-.06,0-.11,0-.11,0-.11,0-.24-.02-.39-.03-.14-.01-.28-.02-.44-.04-.14-.02-.29-.04-.43-.05-.14-.04-.26-.05-.36-.07-.2-.06-.39-.13-.53-.24-.17-.11-.29-.24-.36-.41-.1-.17-.11-.35-.06-.53,.06-.19,.17-.35,.35-.49,.06-.05,.14-.11,.25-.18,.11-.07,.22-.13,.33-.21,.11-.06,.24-.12,.35-.19,.13-.06,.22-.12,.31-.18,.1-.05,.17-.09,.23-.12,.06-.04,.1-.06,.09-.07-.02-.02-.08-.04-.17-.05-.09,0-.21-.01-.35-.02-.14,0-.3,0-.44,0-.17,0-.31,0-.45,0-.22,0-.46-.02-.66-.06-.2-.02-.41-.07-.58-.1-.18-.04-.33-.11-.45-.17-.12-.08-.21-.13-.24-.22-.04-.04-.07-.11-.07-.18-.02-.05-.04-.11-.05-.19,0-.07,0-.11,.02-.17,0-.06,.02-.11,.05-.15,.04-.09,.11-.17,.18-.25,.08-.07,.18-.13,.28-.21,.13-.07,.24-.13,.36-.22,.14-.07,.28-.15,.43-.26,.29-.19,.49-.35,.64-.51,.14-.14,.18-.27,.11-.39-.01-.04-.08-.1-.15-.16-.08-.07-.16-.13-.27-.19-.11-.06-.22-.12-.34-.19-.12-.06-.24-.12-.35-.16-.13-.06-.26-.11-.37-.16-.14-.04-.24-.08-.38-.12-.13-.04-.26-.09-.4-.12-.12-.04-.27-.09-.44-.12-.08-.03-.16-.08-.19-.16-.05-.09-.01-.17,.11-.24Z" style="fill: #1d1d1b;"/>
    <path d="M5.93,105.04c.06-.01,.11-.01,.19,0,.06,0,.14,0,.2,.03,.08,.02,.14,.06,.21,.09,.07,.04,.13,.07,.18,.12,.11,.09,.22,.22,.35,.4,.11,.2,.23,.45,.32,.75,.04,.08,.06,.18,.07,.29,.02,.1,.03,.19,.05,.31,0,.1,.02,.21,.02,.32s0,.21-.02,.31c.02-.03,.05-.05,.09-.07,.05-.03,.09-.06,.14-.08,.05-.01,.09-.05,.14-.07,.06-.01,.1-.03,.12-.04,.19-.05,.39-.09,.63-.09,.21,.01,.43,.05,.65,.11,.22,.05,.42,.12,.62,.23,.2,.09,.37,.19,.54,.31,.11,.08,.25,.2,.36,.33,.1,.11,.21,.24,.31,.4,.1,.13,.19,.29,.26,.47,.08,.16,.13,.33,.2,.5,.05,.14,.06,.3,.02,.46-.02,.15-.09,.29-.16,.43-.08,.13-.17,.26-.3,.36-.13,.11-.25,.18-.39,.24-.24,.07-.49,.11-.74,.11-.25,.01-.51,0-.74-.04-.26-.05-.5-.11-.76-.19-.26-.08-.51-.18-.76-.27-.15-.07-.3-.13-.45-.22-.15-.08-.3-.18-.42-.3-.14-.11-.25-.22-.34-.34-.1-.13-.17-.26-.21-.38-.03-.1-.05-.21-.05-.29-.02-.09,0-.18,.02-.25,.03-.09,.07-.17,.11-.25,.04-.08,.09-.16,.15-.26l.07-.13s.04-.11,.05-.24c.02-.12,.03-.27,.03-.43,0-.16-.02-.33-.04-.52,0-.17-.04-.33-.1-.46-.03-.13-.07-.28-.11-.4-.04-.12-.11-.24-.16-.36-.06-.12-.13-.24-.22-.36-.08-.12-.2-.26-.32-.39,.03-.03,.05-.06,.1-.07,.04-.02,.07-.04,.1-.06Zm2.19,3.24c-.07,.04-.16,.06-.24,.11-.1,.04-.16,.06-.22,.11-.08,.05-.12,.11-.15,.16-.06,.06-.07,.13-.07,.2,0,.12,0,.22,0,.3-.02,.09-.02,.14-.04,.2-.01,.04-.03,.08-.05,.11,0,.02-.01,.04-.01,.04,0,.02,.04,.05,.1,.09,.04,.03,.13,.06,.21,.09,.08,.04,.17,.07,.26,.1,.08,.04,.18,.07,.26,.09,.09,.04,.19,.08,.3,.1,.08,.04,.18,.08,.28,.1,.1,.02,.2,.06,.32,.07,.1,.03,.21,.05,.34,.07,.11,.03,.24,.02,.39,0,.15-.02,.28-.05,.41-.09,.06-.02,.11-.05,.16-.08,.06-.02,.1-.06,.13-.11,.03-.04,.07-.07,.07-.12,.02-.05,.02-.11,0-.16-.05-.14-.09-.26-.15-.36-.03-.08-.09-.16-.16-.23-.06-.08-.13-.14-.22-.2-.09-.07-.2-.15-.33-.24-.05-.05-.12-.09-.2-.11-.07-.05-.16-.09-.23-.12-.09-.02-.18-.06-.26-.09-.1-.03-.18-.05-.25-.08-.05,0-.12,0-.17-.01-.08,0-.14,0-.21,.01-.06,.01-.12,.02-.18,.04-.06,0-.09,.02-.11,.02h0Z" style="fill: #1d1d1b;"/>
    <path d="M5.45,100.13c.08,0,.2,0,.34,.04,.14,.05,.3,.11,.47,.19,.17,.09,.33,.18,.53,.27,.17,.12,.34,.22,.5,.34,.1,.05,.24,.14,.41,.26,.17,.13,.35,.25,.56,.41,.21,.15,.42,.31,.65,.48,.22,.16,.42,.32,.6,.47,.2,.15,.37,.29,.51,.4,.13,.12,.24,.2,.3,.24,.19,.17,.32,.34,.43,.48,.11,.15,.18,.29,.23,.43,.02,.11,.03,.21,.02,.29,0,.07-.01,.15-.03,.2-.02,.05-.06,.09-.1,.13-.03,.03-.08,.06-.11,.07-.12,.02-.21,.02-.31,0-.1-.02-.19-.06-.3-.13-.09-.06-.19-.16-.29-.28-.11-.12-.22-.25-.32-.43-.09-.1-.15-.2-.23-.29-.07-.09-.12-.15-.2-.21-.06-.06-.15-.1-.22-.12-.07-.03-.15-.02-.25,0,0,0-.05,.03-.1,.08-.06,.04-.12,.09-.18,.16-.07,.07-.15,.13-.22,.21-.08,.08-.16,.17-.23,.24-.08,.07-.15,.15-.22,.22-.05,.06-.11,.12-.15,.16-.22,.19-.45,.31-.69,.37-.11,.03-.21,.05-.33,.04-.12,.02-.26,.01-.37,0-.15,0-.32-.06-.47-.11-.16-.05-.32-.13-.45-.21-.13-.09-.24-.19-.34-.29-.1-.09-.16-.19-.17-.28-.05-.11-.05-.2-.05-.28,0-.08,.03-.15,.05-.2,.04-.05,.08-.09,.14-.12,.06-.04,.15-.05,.24-.09,.08,0,.15-.01,.23,0,.08,.01,.17,.05,.23,.09,.09,.04,.15,.08,.22,.12,.07,.05,.13,.1,.18,.12,.07,.06,.14,.1,.22,.16,.06,.05,.11,.08,.15,.11,.22-.06,.38-.15,.51-.29,.08-.06,.17-.15,.26-.24,.1-.1,.21-.21,.32-.31,.1-.09,.21-.2,.3-.3,.11-.09,.18-.16,.23-.21-.04-.05-.1-.1-.17-.18-.08-.07-.18-.16-.3-.25-.11-.1-.23-.21-.38-.32-.14-.11-.27-.22-.44-.33-.14-.11-.28-.23-.42-.32-.14-.11-.29-.2-.4-.27-.11-.07-.2-.12-.27-.16-.09-.05-.15-.09-.18-.13-.05-.03-.1-.06-.13-.09-.03-.03-.05-.07-.05-.1-.01-.04,0-.09,.03-.11,.01-.04,.03-.06,.08-.09,.02-.03,.06-.03,.09-.06,.03,0,.05-.02,.05-.02Z" style="fill: #1d1d1b;"/>
    <path d="M4.4,91.66s.11,0,.18,.02c.06,.02,.14,.05,.23,.09,.06,.02,.13,.05,.2,.1,.08,.04,.14,.08,.23,.13,.08,.05,.16,.1,.24,.15,.07,.03,.14,.09,.18,.13,.22,.13,.43,.3,.64,.47,.21,.18,.4,.37,.56,.57,.18,.2,.32,.42,.44,.64,.12,.23,.2,.47,.24,.73,.05,.23,.03,.42,0,.59-.06,.18-.16,.34-.33,.45-.05,.04-.13,.08-.26,.14-.11,.05-.25,.11-.39,.16-.13,.06-.27,.1-.41,.15-.12,.04-.23,.07-.32,.09-.05,0-.12,.02-.21,.05-.07,0-.13,.03-.19,.05-.07,.02-.12,.05-.17,.07-.03,.04-.05,.05-.05,.08,0,.04,0,.07,.04,.09,.05,.05,.13,.13,.27,.26,.14,.1,.33,.23,.53,.36,.21,.14,.44,.28,.71,.44,.26,.14,.53,.29,.82,.41,.11,.05,.22,.1,.34,.15,.13,.05,.25,.09,.4,.15,.13,.04,.25,.08,.38,.13,.11,.05,.22,.07,.31,.12,.06,.02,.12,.05,.14,.1,.05,.02,.1,.08,.12,.12,.03,.04,.06,.09,.07,.12,.02,.04,.02,.06,.02,.1,.02,.06,.02,.12,0,.21-.03,.06-.05,.13-.11,.18-.03,.06-.1,.1-.15,.13-.06,.05-.12,.06-.19,.07-.03,.02-.1,.01-.2,.01-.09,0-.2,.01-.31,0-.12,0-.24,.01-.38,.02-.12,0-.24,0-.35,0-.2,.01-.43,.01-.67,.02-.25,.01-.5,.04-.75,.05-.25,0-.49,.03-.73,.04-.24,.02-.46,.06-.64,.07-.05,.01-.14,.02-.24,.02-.09,.01-.21,.02-.34,.03-.12,.02-.25,.03-.39,.05-.13,0-.26,.02-.38,.04-.14,0-.25,.02-.36,.03-.11,.02-.22,.03-.29,.03-.09,.01-.18,.02-.25,.02-.08,.02-.15,0-.22,0-.11,0-.18-.01-.25-.03-.09-.02-.18-.04-.28-.07-.03,0-.08-.02-.11-.04-.06-.04-.1-.08-.14-.13-.05-.03-.09-.08-.12-.13-.02-.07-.05-.12-.06-.18-.03-.12,0-.26,.07-.35,.08-.11,.21-.19,.39-.21,.04,0,.11,0,.19-.01,.08,0,.16,0,.24,0,.08,0,.15,0,.21,0,.07,0,.11,0,.12,0,.04,0,.13,0,.24,0,.13-.01,.26-.01,.42-.02,.16,0,.34,0,.55-.02,.18,0,.37,0,.58-.02,.18,0,.37,0,.55-.02,.18-.01,.34,0,.5-.01,.13-.01,.25-.01,.35-.02,.09,0,.14,0,.15,0,.08,0,.17,0,.28,0,.12,0,.24,0,.36,0,.13,0,.24,0,.36,0,.11,0,.19,0,.24,0-.05-.02-.12-.05-.19-.09-.08-.02-.16-.06-.25-.1-.09-.06-.15-.08-.23-.11-.09-.04-.13-.07-.17-.08-.09-.05-.19-.1-.29-.14-.11-.05-.22-.11-.33-.17-.11-.06-.23-.12-.34-.2-.11-.06-.2-.13-.29-.19-.12-.08-.24-.18-.38-.28-.12-.11-.24-.23-.35-.35-.11-.12-.21-.25-.28-.39-.08-.12-.15-.26-.17-.4,0-.03,0-.08,0-.13,0-.07,.04-.12,.06-.18,.02-.06,.03-.11,.09-.16,.04-.05,.08-.1,.14-.13,.1-.06,.24-.11,.39-.16,.16-.06,.33-.12,.5-.16,.16-.06,.35-.11,.51-.16,.17-.05,.33-.12,.46-.17,.13-.06,.24-.11,.31-.17,.09-.06,.12-.12,.11-.18-.02-.09-.03-.17-.06-.24-.01-.07-.03-.15-.07-.21-.02-.07-.06-.14-.1-.21-.04-.08-.07-.13-.14-.22-.11-.16-.22-.3-.31-.41-.11-.12-.21-.22-.31-.33-.1-.1-.22-.19-.34-.3-.12-.1-.26-.22-.43-.34-.17-.13-.31-.26-.43-.37-.1-.1-.17-.18-.17-.23,0-.03,0-.06,0-.08,.03-.04,.04-.07,.06-.08,.01-.01,.04-.02,.06-.03,.03-.02,.07-.02,.08-.02Z" style="fill: #1d1d1b;"/>
    <path d="M.44,89.86c.1,0,.21,0,.3,.02,.09,.02,.2,.05,.29,.1,.18,.11,.28,.3,.31,.54,0,.1,.01,.19,0,.28,0,.1-.04,.18-.05,.26-.02,.07-.04,.14-.1,.2-.04,.05-.08,.09-.14,.1-.1,0-.21,0-.33-.04-.11-.04-.23-.11-.33-.18-.11-.08-.2-.15-.26-.25-.07-.08-.11-.16-.12-.26-.02-.11-.02-.22-.02-.31,0-.09,.02-.16,.05-.22,.03-.06,.08-.11,.14-.15,.06-.05,.13-.07,.23-.08Zm3.66-3.41c.08,0,.17,0,.28,.07,.12,.04,.26,.1,.4,.19,.15,.08,.32,.18,.48,.31,.18,.11,.36,.24,.54,.37,.2,.16,.4,.32,.6,.5,.2,.19,.4,.38,.58,.59,.2,.2,.34,.42,.44,.62,.11,.2,.17,.4,.21,.59,0,.23,0,.44-.07,.6-.06,.17-.15,.33-.25,.45-.12,.13-.26,.25-.43,.33-.16,.09-.34,.17-.52,.23-.19,.05-.36,.11-.56,.15-.19,.03-.37,.06-.54,.08-.08,0-.18,.01-.31,0-.15,.01-.28,.01-.44,.01-.14,0-.3-.02-.45-.02-.13,0-.25-.02-.33-.03-.16-.02-.32-.12-.48-.28-.15-.16-.24-.34-.25-.55-.02-.2,.08-.32,.33-.34,.12-.01,.25-.01,.39,0,.12,0,.27,.02,.39,.03,.24,.02,.46,.02,.65,.02,.19,0,.36-.02,.51-.02,.15-.04,.32-.05,.47-.09,.15-.03,.29-.07,.4-.13,.13-.04,.22-.11,.28-.16,.07-.06,.1-.14,.09-.22,0-.08-.03-.19-.05-.28-.04-.1-.1-.23-.18-.37-.19-.26-.42-.53-.71-.82-.1-.1-.22-.22-.37-.33-.13-.13-.28-.26-.41-.38-.14-.13-.29-.24-.43-.34-.14-.12-.26-.2-.34-.27-.03,0-.04,0-.07-.02-.04-.02-.05-.04-.09-.06-.02-.01-.05-.03-.07-.07-.02-.02-.04-.05-.03-.07-.01-.05,0-.1,0-.11,0-.03,.06-.06,.13-.1,.07-.04,.13-.07,.2-.08Z" style="fill: #1d1d1b;"/>
    <path d="M3.38,71.52s.06,0,.12,.02c.04,0,.09,.02,.14,.04,.07,.02,.11,.05,.16,.07,.06,.03,.12,.06,.16,.1,.08,.04,.19,.12,.29,.21,.11,.08,.22,.17,.35,.27,.11,.11,.22,.22,.35,.34,.12,.12,.22,.23,.33,.35,.08,.1,.17,.2,.27,.33,.09,.12,.18,.24,.26,.39,.09,.14,.16,.29,.22,.43,.05,.14,.1,.28,.09,.43,0,.12-.02,.24-.07,.37-.04,.12-.14,.23-.27,.34-.13,.1-.33,.19-.56,.27-.26,.08-.58,.15-.97,.21-.05,0-.11,0-.19,.01-.08,0-.16,0-.25,.01-.08,0-.15,.01-.21,.03-.06,0-.09,.01-.09,.02,0,.01,.04,.06,.12,.11,.09,.06,.18,.13,.32,.21,.11,.07,.27,.17,.44,.26,.17,.08,.35,.18,.53,.29,.23,.13,.44,.24,.61,.35,.18,.11,.33,.22,.45,.32,.13,.1,.22,.2,.28,.3,.07,.08,.11,.19,.11,.27,0,.15-.02,.28-.08,.37-.06,.1-.14,.17-.26,.22-.12,.06-.26,.1-.45,.12-.19,.03-.42,.06-.67,.05-.42,.03-.75,.05-.99,.08-.24,0-.37,.03-.36,.08,0,.03,.06,.1,.15,.2,.11,.08,.24,.18,.43,.31,.17,.11,.36,.24,.62,.39,.24,.14,.49,.29,.76,.44,.07,.03,.16,.07,.25,.14,.11,.04,.19,.11,.3,.16,.1,.05,.19,.11,.28,.17,.09,.04,.18,.09,.24,.13,.08,.06,.14,.12,.18,.21,.06,.08,.08,.17,.09,.27,0,.12-.03,.24-.09,.34-.05,.09-.13,.17-.23,.22-.09,.07-.2,.12-.34,.14-.13,.03-.27,.04-.43,.05-.13,0-.27,0-.36,0-.11,0-.2-.01-.32-.02-.11-.01-.22-.02-.34-.05-.12,0-.26-.02-.42-.04-.13,0-.27-.02-.43-.03-.15-.01-.29-.02-.44-.03-.14,0-.27-.02-.4-.03-.13,0-.22-.02-.3-.04-.05-.01-.11-.03-.17-.05-.07-.03-.13-.06-.18-.11-.04-.05-.1-.11-.14-.19-.04-.08-.06-.16-.07-.28,0-.09,0-.17,.06-.24,.03-.05,.08-.11,.13-.13,.08-.03,.13-.06,.23-.07,.07-.01,.16-.01,.25-.03,.08,0,.18,.01,.32,.03,.14,0,.29,.04,.46,.08,.13,.02,.3,.06,.48,.09,.17,.02,.35,.07,.5,.1,.16,.03,.3,.05,.42,.08,.14,.02,.24,.04,.32,.04-.02,0-.05-.02-.11-.05-.05-.03-.11-.07-.19-.11-.09-.05-.17-.09-.24-.14-.09-.04-.18-.08-.25-.12-.06-.06-.14-.1-.19-.12-.07-.02-.09-.05-.1-.05-.11-.05-.22-.13-.34-.21-.13-.06-.23-.14-.37-.23-.13-.08-.26-.16-.37-.25-.11-.08-.22-.15-.3-.21-.15-.14-.29-.28-.37-.46-.09-.15-.14-.33-.14-.51,0-.2,.08-.37,.21-.5,.11-.14,.3-.22,.52-.29,.07,0,.18-.02,.3-.05,.14,0,.26,0,.39-.02,.12,0,.27-.01,.4,0,.15-.01,.26,0,.36-.02,.12,0,.2,0,.27,0,.06,0,.09-.01,.09-.03,0-.02-.04-.07-.12-.11-.07-.06-.19-.12-.32-.18-.11-.07-.25-.14-.4-.21-.14-.07-.25-.14-.38-.21-.2-.12-.38-.22-.56-.35-.19-.11-.34-.24-.48-.36-.13-.12-.24-.22-.32-.35-.09-.12-.13-.21-.13-.29,0-.07,0-.13,.02-.21,0-.06,.03-.11,.05-.18,.02-.05,.05-.11,.1-.16,.02-.06,.06-.1,.1-.11,.08-.06,.19-.11,.28-.13,.1-.03,.22-.04,.34-.06,.12-.02,.26-.02,.41-.02,.15-.01,.33-.03,.51-.05,.34-.05,.6-.1,.78-.16,.2-.1,.29-.18,.29-.31-.01-.05-.04-.12-.07-.22-.05-.1-.1-.19-.17-.29-.06-.1-.13-.21-.21-.32-.08-.11-.16-.21-.25-.31-.08-.1-.17-.21-.25-.3-.09-.09-.2-.19-.28-.29-.1-.09-.21-.19-.3-.28-.11-.1-.23-.21-.34-.31-.07-.06-.1-.14-.1-.23,0-.1,.07-.16,.22-.15Z" style="fill: #1d1d1b;"/>
    <path d="M3.01,64.85s.12,.02,.18,.04c.06,.01,.12,.06,.19,.09,.04,.05,.11,.11,.15,.16,.06,.05,.1,.11,.12,.16,.08,.12,.15,.29,.2,.52,.04,.21,.09,.48,.06,.8,0,.09,0,.19-.02,.29,0,.1-.04,.2-.05,.31-.04,.1-.08,.22-.11,.31-.03,.1-.07,.21-.11,.3,.02-.02,.06-.04,.12-.05,.06,0,.1-.02,.16-.02,.06,0,.1,0,.16,0,.05,0,.09,0,.11,0,.2,0,.4,.05,.62,.13,.19,.08,.39,.19,.58,.31,.18,.13,.35,.27,.5,.42,.16,.15,.3,.31,.39,.48,.1,.13,.18,.27,.23,.43,.07,.15,.12,.32,.17,.49,.03,.17,.07,.34,.09,.52,.02,.19,.02,.37,.02,.55,0,.15-.05,.29-.13,.44-.08,.13-.18,.25-.31,.35-.11,.11-.25,.18-.4,.24-.15,.07-.3,.09-.45,.08-.25-.02-.5-.06-.75-.12-.24-.08-.46-.18-.68-.31-.22-.12-.42-.26-.64-.42-.21-.16-.41-.34-.63-.51-.11-.1-.24-.23-.35-.35-.1-.13-.21-.28-.29-.42-.1-.14-.16-.28-.21-.44-.05-.14-.08-.29-.07-.42,0-.12,.01-.22,.03-.3,.03-.09,.07-.16,.11-.22,.05-.06,.12-.13,.18-.19,.07-.07,.14-.14,.24-.21l.12-.09s.06-.11,.12-.22c.05-.12,.11-.25,.16-.41,.06-.16,.11-.33,.14-.49,.05-.16,.07-.33,.08-.47,0-.14,0-.29,0-.42,0-.13-.01-.27-.02-.38-.01-.14-.05-.27-.1-.43-.03-.13-.1-.3-.17-.47,.04-.01,.08-.02,.13-.04,.04,0,.08,0,.11,0Zm.99,3.79c-.09,0-.18,0-.27,0-.09,.01-.16,.02-.24,.04-.08,.02-.15,.07-.21,.11-.05,.05-.1,.11-.12,.17-.01,.11-.06,.21-.1,.27-.03,.07-.07,.13-.1,.17-.03,.05-.06,.06-.08,.09-.02,.02-.03,.03-.03,.03,0,.02,.02,.06,.06,.11,.05,.04,.1,.1,.17,.15,.07,.07,.14,.13,.2,.19,.08,.07,.16,.12,.22,.18,.1,.07,.17,.14,.24,.2,.08,.07,.17,.13,.23,.18,.09,.07,.18,.11,.28,.18,.07,.06,.18,.11,.28,.18,.11,.06,.23,.1,.38,.13,.16,.02,.31,.06,.43,.04,.06,0,.11,0,.17,0,.07-.01,.11-.03,.15-.05,.06-.03,.09-.06,.13-.11,.02-.04,.03-.08,.04-.14,0-.15,0-.28-.01-.39,0-.1-.03-.18-.07-.28-.04-.09-.08-.18-.16-.27-.06-.09-.12-.2-.21-.33-.04-.07-.1-.11-.14-.18-.06-.06-.13-.13-.19-.17-.07-.06-.14-.12-.22-.18-.07-.06-.15-.11-.22-.17-.03-.02-.11-.05-.16-.07-.05-.01-.12-.04-.19-.06-.07,0-.13,0-.18-.01-.05-.02-.09-.02-.11-.02h0Z" style="fill: #1d1d1b;"/>
    <path d="M3.88,60.51c.09,.02,.19,.06,.32,.14,.12,.09,.25,.19,.39,.32,.13,.12,.27,.25,.43,.42,.14,.16,.26,.32,.4,.46,.07,.09,.17,.21,.3,.36,.13,.17,.27,.36,.41,.57,.17,.2,.31,.41,.47,.63,.16,.23,.31,.44,.46,.64,.15,.2,.26,.38,.37,.53,.11,.16,.17,.26,.22,.33,.11,.21,.21,.41,.26,.59,.05,.16,.1,.32,.09,.46,0,.11-.03,.2-.05,.27-.04,.08-.06,.14-.1,.18-.04,.06-.07,.09-.12,.11-.04,.02-.09,.03-.13,.02-.12,0-.22-.02-.3-.08-.1-.05-.17-.12-.23-.21-.08-.1-.15-.21-.21-.35-.07-.14-.13-.31-.19-.49-.05-.13-.09-.24-.14-.35-.04-.1-.08-.19-.11-.26-.06-.08-.11-.14-.18-.18-.06-.04-.15-.07-.25-.07-.02,0-.07,0-.12,.04-.07,.03-.14,.06-.22,.11-.09,.04-.18,.09-.28,.15-.11,.05-.2,.1-.3,.15-.09,.05-.17,.11-.26,.15-.09,.04-.16,.1-.21,.11-.24,.11-.51,.18-.76,.15-.11,0-.22-.03-.33-.05-.12-.03-.24-.07-.35-.12-.15-.05-.29-.13-.43-.24-.12-.11-.25-.22-.35-.34-.11-.12-.19-.25-.25-.37-.06-.11-.09-.22-.08-.3,0-.12,.02-.21,.05-.29,.02-.07,.06-.12,.11-.17,.05-.04,.1-.06,.17-.06,.07-.02,.15-.03,.24-.02,.07,0,.15,.04,.22,.08,.09,.04,.14,.09,.2,.15,.06,.06,.12,.12,.17,.19,.06,.07,.11,.12,.13,.16,.06,.07,.12,.14,.16,.21,.07,.06,.11,.11,.13,.15,.2,.01,.39-.03,.56-.11,.1-.04,.21-.1,.33-.16,.15-.07,.27-.13,.4-.2,.14-.06,.26-.13,.38-.18,.11-.07,.22-.12,.28-.16-.01-.05-.04-.12-.12-.21-.06-.1-.11-.22-.2-.34-.08-.11-.16-.27-.29-.41-.09-.16-.2-.31-.3-.44-.1-.16-.21-.3-.32-.44-.11-.14-.2-.25-.31-.37-.08-.11-.14-.18-.2-.24-.07-.07-.11-.11-.14-.15-.04-.07-.08-.1-.1-.14-.01-.02-.02-.06-.02-.1,0-.05,.02-.08,.05-.11,.03-.03,.06-.04,.11-.06,.04,0,.07-.02,.11-.03,.02,0,.03,0,.05,0Z" style="fill: #1d1d1b;"/>
    <path d="M4.67,52.65s.11,.02,.16,.05c.05,.04,.13,.08,.21,.14,.05,.03,.12,.08,.18,.15,.06,.05,.12,.11,.19,.17,.08,.07,.14,.12,.2,.19,.06,.06,.12,.12,.16,.19,.19,.18,.34,.4,.51,.62,.17,.21,.31,.44,.43,.67,.12,.24,.2,.48,.28,.72,.06,.24,.09,.49,.06,.77,0,.21-.06,.42-.15,.57-.11,.16-.22,.28-.42,.36-.05,.03-.14,.06-.27,.08-.14,.03-.28,.06-.41,.07-.15,.02-.3,.03-.43,.05-.16,0-.26,0-.35,.02-.06,0-.11,0-.2,0-.07,0-.13,0-.21,0-.08,.01-.13,.02-.17,.03-.06,.01-.09,.04-.09,.07,0,.04,0,.07,.02,.09,.02,.07,.1,.16,.21,.3,.12,.15,.25,.32,.45,.49,.16,.19,.36,.38,.59,.58,.23,.22,.45,.42,.71,.59,.09,.07,.2,.15,.31,.22,.11,.07,.23,.16,.34,.21,.11,.09,.23,.16,.33,.23,.11,.08,.21,.14,.31,.19,.04,.04,.07,.1,.11,.14,.04,.05,.06,.1,.09,.14,0,.04,.03,.09,.03,.13,.02,.03,.01,.07,.01,.09,0,.07-.03,.14-.06,.21-.04,.05-.08,.1-.13,.14-.05,.05-.12,.1-.19,.11-.07,.02-.11,.03-.2,.03-.03,0-.1,0-.19-.03-.09-.02-.19-.04-.3-.07-.12-.01-.24-.05-.36-.08-.12-.03-.24-.04-.36-.06-.2-.04-.42-.09-.68-.13-.21-.05-.47-.09-.72-.13-.25-.05-.49-.07-.72-.12-.23-.03-.45-.06-.64-.08-.07,0-.14-.01-.23-.03-.11-.01-.22-.03-.34-.04-.13,0-.26-.03-.39-.05-.13-.01-.27-.03-.38-.04-.13-.01-.25-.03-.38-.04-.11,0-.2-.03-.28-.04-.09,0-.17-.01-.25-.03-.07-.01-.14-.03-.23-.05-.07-.02-.14-.04-.22-.09-.09-.03-.17-.07-.26-.12-.03-.02-.07-.04-.11-.09-.04-.03-.08-.08-.11-.13-.03-.05-.06-.11-.08-.16,0-.07-.03-.12-.03-.19,0-.14,.06-.26,.18-.35,.09-.09,.23-.12,.41-.11,.04,0,.1,0,.19,.02,.08,0,.15,.03,.23,.05,.07,.02,.13,.04,.21,.05,.06,.02,.11,.03,.12,.03,.03,.01,.12,.04,.23,.05,.12,.01,.25,.06,.41,.09,.16,.03,.34,.06,.52,.1,.18,.03,.38,.07,.57,.11,.19,.04,.38,.06,.56,.11,.17,.03,.32,.06,.47,.09,.14,.03,.25,.05,.34,.07,.11,0,.14,.02,.17,.03,.06,0,.15,.03,.28,.05,.1,.02,.23,.05,.35,.08,.12,.02,.23,.05,.34,.07,.12,.02,.19,.04,.24,.05-.05-.04-.09-.08-.16-.13-.07-.05-.14-.1-.21-.15-.08-.06-.14-.11-.21-.16-.07-.05-.11-.09-.14-.11-.08-.06-.16-.11-.25-.2-.09-.07-.18-.15-.29-.24-.09-.07-.19-.17-.26-.26-.11-.08-.19-.17-.27-.25-.1-.11-.19-.22-.3-.36-.09-.13-.19-.27-.27-.43-.08-.14-.13-.28-.2-.44-.03-.14-.06-.29-.05-.43,0-.03,0-.07,.03-.13,.02-.06,.05-.11,.08-.15,.05-.06,.09-.1,.13-.15,.05-.04,.11-.07,.16-.08,.11-.05,.27-.07,.44-.09,.16-.01,.35-.03,.52-.04,.19-.02,.36-.03,.53-.04,.18-.01,.34-.05,.48-.07,.14-.02,.27-.06,.35-.08,.08-.05,.14-.1,.15-.16,0-.09,0-.17,0-.24,0-.07-.01-.16-.03-.22,0-.07-.02-.15-.05-.22-.02-.08-.03-.16-.08-.25-.08-.18-.14-.34-.22-.47-.07-.14-.15-.27-.23-.39-.06-.11-.17-.24-.26-.36-.11-.13-.21-.27-.34-.43-.13-.16-.25-.32-.33-.45-.08-.13-.13-.23-.12-.27,0-.04,.02-.07,.03-.09,.02-.01,.04-.04,.06-.05,.03-.02,.06-.02,.1-.02h.07Z" style="fill: #1d1d1b;"/>
    <path d="M1.31,49.73c.1,.02,.21,.05,.3,.1,.08,.04,.17,.1,.25,.17,.14,.15,.2,.35,.17,.6,0,.09-.03,.18-.07,.27-.02,.09-.05,.17-.09,.23-.06,.08-.09,.13-.14,.16-.06,.05-.11,.06-.16,.06-.11-.02-.21-.06-.31-.12-.11-.07-.19-.15-.27-.24-.08-.09-.15-.2-.2-.31-.05-.1-.06-.2-.05-.29,.02-.11,.03-.21,.06-.3,.03-.08,.07-.15,.11-.21,.04-.05,.09-.09,.17-.11,.07-.02,.16-.03,.24-.01Zm4.38-2.4c.08,0,.18,.04,.27,.12,.11,.08,.22,.17,.35,.29,.11,.11,.24,.26,.39,.42,.13,.15,.28,.33,.42,.5,.16,.2,.31,.42,.46,.64,.13,.22,.28,.45,.42,.7,.12,.24,.22,.49,.27,.71,.06,.22,.06,.44,.02,.63-.01,.22-.09,.42-.19,.57-.09,.16-.23,.28-.36,.37-.16,.1-.32,.18-.5,.22-.16,.05-.35,.08-.55,.11-.2,0-.38,0-.58,0-.19,0-.37-.01-.55-.05-.06-.01-.16-.03-.3-.06-.13-.03-.27-.07-.42-.11-.14-.05-.29-.09-.42-.13-.13-.04-.24-.08-.32-.1-.15-.08-.28-.21-.39-.4-.12-.19-.16-.39-.13-.59,.04-.21,.17-.29,.43-.26,.12,.01,.23,.05,.38,.09,.11,.04,.24,.08,.38,.12,.22,.09,.42,.14,.61,.18,.19,.03,.36,.07,.49,.11,.17,.02,.34,.03,.49,.04,.15,0,.3,0,.43-.04,.12-.01,.22-.05,.31-.09,.08-.04,.12-.11,.12-.19,.02-.09,.03-.2,.02-.29,0-.12-.02-.24-.08-.4-.12-.3-.28-.61-.49-.97-.08-.12-.15-.26-.26-.42-.11-.16-.22-.32-.32-.47-.1-.16-.22-.31-.32-.44-.11-.15-.2-.26-.28-.33,0-.02-.03-.03-.05-.05-.03-.02-.05-.05-.06-.08-.03-.02-.05-.06-.06-.09-.02-.03-.01-.05-.01-.07,0-.06,.02-.1,.03-.11,.03-.03,.07-.03,.14-.07,.09-.02,.15-.03,.21-.01Z" style="fill: #1d1d1b;"/>
    <path d="M8.39,35.23s.05,.03,.1,.06c.03,.02,.07,.06,.13,.11,.05,.06,.1,.12,.16,.22,.05,.1,.12,.2,.17,.33,.05,.13,.1,.29,.16,.49,.05,.19,.12,.4,.16,.64,.05,.22,.11,.47,.16,.73,.05,.26,.09,.51,.15,.77,.03,.25,.09,.49,.12,.73,.04,.23,.07,.44,.1,.65,0,.11,.04,.24,.08,.37,.04,.13,.08,.25,.11,.38,.04,.11,.05,.22,.08,.33,.02,.11,.02,.21,0,.29-.04,.08-.07,.18-.11,.24-.05,.08-.1,.14-.17,.19-.07,.06-.14,.09-.23,.09-.07,.03-.16,.02-.26,0-.09-.03-.15-.07-.2-.13-.04-.09-.07-.19-.09-.27-.03-.11-.03-.21-.05-.31,0-.1,0-.2,0-.27,0-.1-.01-.2-.02-.29,0-.09,.01-.15,0-.23-.03-.09-.07-.18-.12-.29-.05-.09-.11-.17-.18-.27-.06-.1-.14-.19-.21-.28-.09-.08-.17-.17-.24-.24-.05-.05-.1-.09-.17-.14-.07-.04-.12-.08-.2-.13-.06-.03-.12-.06-.18-.09-.06-.04-.11-.05-.17-.07-.16-.04-.31-.05-.41-.02-.11,.02-.19,.07-.22,.16-.02,.06-.01,.15,.02,.26,.02,.11,.06,.22,.08,.34,.05,.12,.11,.22,.16,.34,.05,.11,.11,.2,.15,.26,.1,.16,.21,.35,.34,.53,.12,.19,.24,.36,.39,.54,.15,.19,.3,.36,.44,.52,.15,.15,.32,.29,.47,.39,.1,.07,.21,.14,.34,.2,.14,.05,.26,.11,.41,.16,.15,.07,.3,.11,.45,.16,.15,.07,.3,.11,.44,.15,.23,.08,.46,.15,.69,.22,.23,.08,.43,.15,.61,.24,.06,.03,.12,.07,.17,.11,.04,.05,.08,.1,.11,.17,.02,.07,.04,.13,.05,.21,0,.06-.01,.15-.03,.22,0,.05-.03,.11-.07,.15-.06,.07-.1,.12-.17,.16-.06,.03-.11,.08-.19,.1-.06,.02-.12,.03-.18,0-.07-.02-.14-.04-.23-.08-.1-.03-.18-.06-.29-.1-.1-.04-.2-.09-.3-.13-.11-.04-.2-.1-.29-.13-.1-.04-.18-.08-.24-.1-.08-.04-.14-.07-.18-.08-.27-.13-.59-.27-.95-.39-.38-.15-.75-.29-1.14-.43-.08-.02-.21-.07-.36-.11-.14-.05-.3-.11-.44-.15-.15-.05-.29-.09-.41-.14-.12-.03-.22-.06-.27-.07-.3-.13-.54-.26-.68-.41-.11-.14-.17-.32-.11-.5,.03-.08,.05-.13,.11-.2,.06-.07,.12-.11,.18-.14,.07-.04,.14-.06,.22-.08,.08,0,.15,0,.2,.01,.06,.02,.14,.04,.23,.09,.1,.03,.18,.08,.28,.14,.1,.04,.2,.09,.28,.14,.1,.05,.18,.08,.24,.13-.09-.11-.18-.22-.28-.32-.1-.12-.21-.23-.29-.34-.09-.1-.19-.21-.25-.32-.09-.11-.15-.2-.19-.3-.09-.18-.18-.34-.24-.51-.07-.16-.13-.32-.18-.49-.04-.16-.05-.33-.07-.49,0-.17,.02-.33,.07-.51,.04-.13,.11-.24,.21-.35,.12-.12,.23-.2,.38-.27,.16-.06,.32-.11,.51-.13,.19-.02,.39,.02,.6,.07,.1,.03,.22,.09,.32,.14,.12,.06,.24,.14,.33,.24,.11,.09,.2,.19,.3,.3,.09,.11,.15,.22,.22,.34-.04-.22-.1-.47-.15-.71-.05-.26-.11-.51-.18-.77-.06-.24-.13-.49-.2-.75-.07-.25-.15-.49-.19-.69-.04-.12-.07-.21-.08-.29-.02-.07-.02-.13,0-.21,.02-.06,.03-.1,.07-.11,.04-.03,.08-.03,.14-.01,.02,0,.03,0,.07,.03,.04,0,.05,0,.06,0Z" style="fill: #1d1d1b;"/>
    <path d="M10.06,30.69s.06,.03,.11,.07c.04,.03,.09,.07,.11,.11,.04,.04,.07,.09,.08,.13,.02,.06,.02,.11,0,.16,0,.02,0,.04-.03,.08,0,.05-.03,.08-.05,.12-.02,.04-.04,.08-.06,.12-.01,.04-.02,.08-.03,.09-.16,.51-.16,1.01,.03,1.52,.05,.11,.1,.24,.16,.36,.07,.12,.15,.25,.23,.39,.1,.13,.2,.26,.31,.4,.1,.13,.22,.26,.34,.39,.12,.09,.21,.2,.32,.3,.12,.1,.24,.19,.37,.28,.06,.05,.14,.1,.19,.13,.05,.03,.11,.08,.17,.13,.05,.02,.09,.07,.1,.12,.03,.04,.03,.11,.02,.16,0,.06,0,.11,.02,.17-.02,.06-.03,.12-.04,.17-.09,.19-.22,.29-.43,.3-.21,0-.47-.06-.82-.2-.08-.03-.15-.06-.21-.09-.07-.03-.14-.06-.21-.11-.06-.03-.14-.05-.22-.1-.07-.04-.16-.06-.25-.11-.13-.07-.29-.15-.48-.26-.19-.08-.37-.2-.56-.29-.19-.11-.37-.21-.55-.31-.19-.1-.32-.18-.45-.26-.13-.1-.24-.21-.3-.34-.06-.11-.05-.26,0-.42,.03-.06,.05-.1,.1-.15,.04-.03,.1-.06,.14-.1,.05-.01,.11-.04,.17-.03,.04-.03,.09-.03,.12-.02l.07,.03c.1,.04,.18,.08,.29,.14,.11,.05,.24,.11,.35,.19,.11,.08,.23,.16,.35,.24,.13,.07,.24,.15,.35,.23,.1,.07,.2,.15,.29,.21,.11,.07,.18,.11,.24,.15-.17-.19-.35-.39-.5-.59-.16-.2-.3-.4-.43-.61-.11-.22-.22-.41-.29-.64-.08-.21-.12-.42-.13-.64-.01-.17-.01-.32,0-.45,.01-.14,.05-.26,.08-.35,.04-.11,.11-.22,.17-.34,.07-.11,.16-.21,.25-.29,.07-.09,.17-.15,.26-.19,.08-.05,.17-.05,.25-.01Z" style="fill: #1d1d1b;"/>
    <path d="M13.53,23.34s.09,.05,.14,.1c.05,.06,.08,.11,.13,.18,.03,.06,.06,.13,.08,.21,.03,.07,.04,.13,.05,.2,.02,.15,0,.33-.04,.55-.04,.22-.14,.47-.28,.75-.03,.08-.09,.17-.14,.26-.07,.08-.11,.17-.2,.25-.07,.08-.13,.17-.2,.24-.07,.07-.15,.14-.24,.2,.03,0,.08,0,.13,0,.05,.02,.09,.02,.15,.05,.04,0,.09,.05,.14,.06,.06,.02,.09,.04,.11,.06,.19,.09,.36,.21,.5,.37,.15,.16,.3,.32,.42,.53,.1,.18,.21,.38,.28,.59,.07,.21,.12,.41,.16,.61,.02,.14,.03,.3,.02,.48,0,.17-.03,.33-.06,.51-.04,.17-.09,.34-.14,.51-.06,.17-.13,.33-.23,.51-.06,.13-.16,.24-.28,.35-.13,.09-.27,.15-.43,.2-.14,.04-.3,.04-.47,.03-.16,0-.31-.04-.43-.1-.24-.12-.44-.25-.62-.43-.18-.15-.35-.35-.5-.55-.15-.2-.27-.42-.41-.66-.12-.24-.23-.47-.34-.72-.07-.15-.11-.31-.16-.47-.05-.17-.08-.33-.11-.51-.02-.16-.02-.33,0-.49,.03-.15,.07-.29,.12-.41,.06-.11,.11-.19,.17-.25,.04-.06,.11-.12,.2-.15,.07-.04,.15-.08,.23-.11,.1-.02,.19-.04,.3-.08l.15-.04s.11-.05,.21-.13c.09-.07,.19-.18,.32-.31,.11-.11,.22-.24,.33-.39,.12-.13,.2-.27,.27-.39,.07-.14,.12-.26,.18-.38,.05-.11,.11-.23,.15-.36,.04-.13,.06-.27,.09-.42,.02-.14,.03-.32,.05-.5,.04,0,.08,0,.11,.02,.05,.02,.09,.03,.11,.04Zm-.71,3.84c-.07-.03-.15-.07-.21-.1-.09-.04-.18-.06-.25-.07-.08,0-.15,0-.23,.01-.08,0-.13,.05-.18,.11-.09,.08-.14,.14-.22,.2-.06,.04-.11,.08-.16,.11-.03,.02-.07,.03-.09,.04-.04,0-.04,.01-.04,.02-.01,.02,0,.06,0,.11,.02,.07,.05,.14,.09,.23,.03,.08,.06,.15,.11,.25,.04,.09,.09,.18,.11,.25,.06,.1,.1,.19,.14,.28,.04,.09,.1,.17,.15,.26,.04,.09,.1,.18,.15,.27,.06,.09,.14,.18,.21,.29,.07,.08,.17,.18,.28,.26,.13,.1,.25,.17,.37,.22,.04,.03,.08,.05,.15,.06,.06,.02,.12,.02,.16,.01,.06,0,.11,0,.16-.04,.03-.02,.07-.06,.1-.13,.08-.13,.13-.24,.15-.33,.04-.09,.06-.19,.06-.29,.02-.09,0-.19-.01-.3,0-.1-.03-.24-.06-.39-.02-.07-.03-.15-.07-.22-.02-.09-.06-.17-.1-.25-.03-.08-.07-.16-.11-.25-.05-.08-.09-.16-.14-.24-.02-.03-.05-.08-.11-.12-.05-.04-.09-.08-.14-.13-.05-.02-.11-.06-.15-.1-.05-.03-.09-.05-.1-.06h0Z" style="fill: #1d1d1b;"/>
    <path d="M12.35,19.83s.04,.03,.06,.08c.03,.04,.05,.1,.11,.15,.02,.06,.06,.12,.08,.2,.03,.07,.06,.13,.08,.2,.03,.07,.04,.12,.05,.17,.02,.05,0,.09,0,.11-.05,.07-.09,.14-.14,.18-.05,.04-.11,.07-.16,.09-.04,.02-.1,.03-.18,.04-.08,0-.17,0-.26,0-.09,0-.16,0-.2,0-.06,0-.1-.02-.13-.04-.05-.04-.11-.08-.14-.16-.03-.07-.06-.14-.08-.23-.02-.08-.02-.15-.02-.24,.02-.08,.02-.14,.07-.2,.04-.07,.08-.14,.17-.21,.07-.07,.15-.11,.22-.15,.08-.04,.17-.05,.24-.06,.08,0,.17,.02,.24,.07Zm1.78,2.04s.06,.05,.09,.09c.04,.04,.07,.09,.1,.12,.02,.06,.07,.09,.09,.15,.06,.04,.08,.07,.11,.12,.12,.13,.38,.31,.76,.54,.05,.03,.12,.08,.22,.12,.09,.05,.18,.12,.28,.17,.11,.07,.22,.11,.32,.18,.11,.05,.19,.09,.24,.13,.46,.28,.88,.54,1.23,.8,.37,.25,.67,.52,.92,.77,.16,.15,.28,.3,.38,.47,.11,.17,.16,.34,.22,.51,.04,.19,.05,.36,.01,.56-.02,.17-.09,.35-.2,.54-.11,.15-.22,.3-.37,.41-.14,.12-.3,.23-.45,.32-.15,.07-.29,.13-.42,.16-.13,.02-.22,.03-.27-.01-.08-.05-.12-.1-.13-.16,0-.04,0-.11,.06-.19,0,0,.04-.05,.11-.1,.06-.05,.11-.11,.21-.18,.08-.07,.16-.16,.24-.25,.09-.09,.15-.19,.22-.29,.05-.09,.09-.21,.07-.31,0-.11-.04-.22-.1-.32-.07-.12-.15-.22-.25-.32-.11-.11-.23-.22-.36-.32-.15-.11-.28-.21-.42-.31-.16-.11-.31-.2-.46-.3-.07-.04-.15-.09-.26-.14-.1-.06-.21-.12-.31-.18-.11-.07-.22-.12-.33-.19-.13-.07-.23-.12-.33-.19-.11-.06-.2-.12-.29-.16-.1-.06-.16-.09-.21-.12-.62-.38-1.04-.72-1.25-1.01-.25-.31-.28-.6-.11-.88,.07-.13,.18-.2,.28-.26,.11-.03,.23-.02,.34,.04Z" style="fill: #1d1d1b;"/>
    <path d="M19.76,15.68c.05,.03,.11,.13,.19,.3,.1,.28,.17,.57,.25,.88,.07,.3,.12,.61,.17,.93,.02,.31,.04,.62,.04,.93,.02,.3,0,.61-.04,.89-.05,.29-.12,.56-.21,.81-.09,.24-.22,.48-.35,.67-.32,.44-.7,.71-1.13,.77-.44,.08-.92-.07-1.43-.45-.2-.14-.39-.3-.57-.47-.18-.18-.34-.36-.49-.57-.14-.2-.27-.42-.38-.67-.1-.24-.19-.5-.24-.78-.04-.11-.05-.22-.05-.34-.02-.12-.02-.25,0-.37,.02-.12,.05-.24,.09-.35,.05-.11,.1-.22,.16-.32,.1-.14,.22-.24,.35-.3,.11-.07,.24-.11,.38-.1,.13-.01,.27,0,.41,.07,.14,.05,.28,.13,.4,.21,.24,.17,.41,.43,.54,.78,.13,.35,.21,.78,.26,1.27,0,.16,0,.35,0,.56,.02,.2,.03,.42,.02,.68,.07,.03,.16,.07,.23,.08,.08,0,.15,0,.25-.04,.08-.02,.16-.07,.24-.13,.09-.05,.16-.13,.23-.23,.09-.12,.17-.28,.24-.44,.08-.17,.13-.35,.19-.53,.05-.18,.07-.36,.11-.55,.02-.18,.03-.36,.02-.52,.02-.3,0-.6-.04-.89-.03-.31-.07-.59-.12-.88l-.05-.36c-.03-.23,0-.41,.07-.5,.03-.06,.07-.08,.12-.08,.04,0,.09,.01,.12,.03Zm-2.93,2.55c-.07-.04-.12-.07-.18-.1-.06-.02-.11-.03-.15-.02-.06,.1-.08,.23-.09,.36,.02,.17,.04,.34,.11,.53,.08,.2,.19,.4,.34,.61,.15,.23,.32,.43,.54,.63,0-.18-.02-.37,0-.56,0-.21-.04-.39-.08-.57-.04-.17-.1-.35-.17-.49-.08-.15-.18-.28-.32-.38Z" style="fill: #1d1d1b;"/>
    <path d="M24.91,10.66c.05,.05,.07,.09,.1,.14,.02,.05,.03,.1,.04,.15,0,.07,0,.14,0,.21,0,.09,0,.19,0,.31v.61c0,.13,0,.24-.02,.33,0,.09-.01,.17-.02,.26,0,.08,0,.15-.02,.24,0,.08-.02,.2-.03,.32-.02,.28-.06,.54-.08,.79-.05,.24-.1,.49-.13,.72-.08,.33-.21,.65-.37,.95-.18,.32-.39,.6-.65,.87-.18,.16-.36,.28-.56,.35-.19,.07-.39,.09-.59,.08-.21-.02-.4-.07-.58-.17-.19-.1-.37-.22-.52-.38-.29-.31-.53-.67-.71-1.1-.17-.43-.28-.9-.36-1.41-.02-.13-.03-.27-.03-.43,0-.15,0-.31,.02-.44,.01-.15,.05-.29,.1-.42,.05-.13,.12-.24,.19-.33,.04-.04,.11-.09,.21-.1,.09-.01,.18-.04,.28-.03,.1,0,.21,.01,.32,.05,.11,.03,.23,.06,.34,.11,.23,.09,.38,.17,.45,.24,.04,.03,.09,.09,.14,.16,.05,.05,.08,.13,.11,.21,.02,.07,.04,.14,.03,.22,0,.07-.02,.14-.07,.19-.1,.09-.19,.13-.29,.13-.12,0-.23-.02-.34-.06-.11-.03-.2-.06-.29-.11-.09-.05-.16-.09-.21-.09-.02,.07-.05,.17-.06,.29,0,.12,.01,.25,.03,.4,.04,.15,.08,.31,.13,.46,.05,.16,.13,.32,.2,.48,.08,.16,.17,.32,.27,.46,.1,.15,.22,.31,.34,.43,.11,.12,.26,.18,.42,.18,.2,0,.33-.03,.43-.12,.26-.26,.46-.56,.6-.89,.15-.34,.26-.71,.33-1.08,.05-.26,.08-.55,.11-.85,.03-.29,.05-.64,.07-1.02,0-.13,.01-.27,.02-.42,0-.13,.03-.25,.04-.37,.03-.12,.06-.22,.09-.31,.04-.1,.09-.17,.14-.22,.12-.12,.25-.12,.37,0Z" style="fill: #1d1d1b;"/>
    <path d="M29.61,6.71s.06,.09,.06,.15c.01,.06,0,.11,0,.16-.02,.06-.03,.11-.05,.17-.02,.05-.04,.1-.06,.14-.09,.14-.17,.26-.29,.4-.11,.14-.22,.27-.34,.39-.11,.11-.24,.23-.35,.33-.11,.11-.21,.21-.32,.3-.07,.07-.14,.12-.22,.19-.08,.06-.15,.12-.22,.19-.08,.05-.14,.12-.2,.18-.05,.05-.12,.09-.15,.13,.09,.27,.19,.53,.28,.76,.09,.24,.18,.47,.27,.67,.02,.05,.03,.1,.06,.16,.04,.06,.06,.13,.1,.21,.02,.07,.08,.15,.11,.24,.04,.07,.07,.16,.13,.23,.02,.07,.06,.13,.09,.19,.02,.04,.05,.09,.07,.12,.07,.09,.11,.14,.19,.16,.04,.02,.09,.03,.14,.04,.08,0,.15,0,.22,.04,.06,0,.11,.05,.17,.11,.03,.06,.05,.12,.04,.2,0,.07,0,.14-.05,.21-.04,.08-.08,.14-.13,.22-.05,.06-.1,.11-.15,.15-.1,.07-.21,.11-.31,.12-.12,0-.22-.02-.32-.06-.12-.04-.22-.1-.32-.18-.09-.07-.17-.17-.25-.27-.11-.17-.23-.37-.36-.6-.11-.22-.22-.46-.32-.71-.04-.11-.08-.23-.14-.36-.05-.12-.09-.24-.15-.36-.06-.12-.1-.22-.13-.31-.04-.09-.07-.15-.08-.18-.06,.05-.12,.11-.23,.2-.1,.09-.2,.17-.36,.27-.12,.08-.23,.15-.32,.19-.09,.04-.18,.05-.25,.05-.09,.02-.16,0-.24-.07-.08-.07-.14-.15-.23-.25-.03-.06-.05-.13-.03-.2,.02-.07,.05-.14,.1-.21,.06-.06,.13-.12,.2-.18,.06-.05,.12-.1,.18-.13,.02-.02,.07-.06,.14-.11,.05-.06,.12-.11,.2-.17,.08-.06,.13-.11,.22-.17,.05-.06,.11-.11,.15-.13,.02,0,.02-.04,0-.1-.02-.07-.04-.16-.07-.24-.03-.1-.08-.21-.11-.32-.05-.11-.09-.22-.15-.34-.03-.1-.09-.19-.13-.3-.03-.07-.05-.16-.08-.21-.05-.13-.11-.27-.19-.43-.07-.14-.13-.31-.18-.45-.04-.14-.05-.29-.04-.43,.02-.14,.09-.25,.23-.34,.14-.09,.27-.14,.37-.12,.12,0,.24,.1,.32,.24,.05,.07,.1,.15,.14,.25,.04,.09,.09,.2,.13,.3,.07,.25,.16,.5,.23,.69,.08,.21,.14,.4,.22,.56,.05,.14,.13,.31,.21,.46,.11-.07,.2-.14,.3-.21,.11-.07,.22-.15,.31-.22,.1-.08,.21-.16,.32-.25,.11-.09,.21-.18,.34-.29,.13-.11,.25-.23,.34-.33,.1-.09,.18-.17,.25-.25,.07-.07,.14-.13,.2-.18,.07-.06,.13-.11,.2-.17,.04-.02,.07-.02,.13-.03,.03,0,.1,.03,.14,.11Z" style="fill: #1d1d1b;"/>
  </g>
  <g>
    <path d="M114.48,120.01c-2.73,0-4.88-1.06-5.53-1.43-8.03-3.34-9.41-22.7-9.6-26.58-.25-8.78-2.78-10.09-3.06-10.21l-.09-.02c-1.66-.26-2.85,.05-3.78,1.02-1.88,1.94-2.2,6.04-2.17,7.33,.7,13.58-.91,22.3-4.97,26.6-1.77,1.86-3.99,2.85-6.45,2.87-2.69,0-4.81-1.14-5.24-1.41-6.28-3.45-7.5-21.06-7.7-24.82-.42-3.14-1.5-5.7-2.82-6.72-1.41-1.06-2.64-1.63-3.59-1.63-3.22,.02-4.58,8.04-4.7,11.68-.19,22.4-12.28,23.59-14.7,23.6-.51,0-.79-.04-.79-.04h-.08c-27-4.25-22.3-58.16-21.99-61.47,.65-26.37,13.69-39,14.26-39.52,5.07-4.5,10.31-6.77,15.58-6.79,14.19-.06,24.63,15.95,28.85,23.72C92.96,2.02,114.08,.15,118.28,.13c.1,0,.19,0,.26,0,.87-.09,1.75-.13,2.61-.14,21.29-.09,27.71,25.04,27.78,25.28,2.27,10.1,1.14,18.03-3.34,23.66-6.09,7.65-16.75,8.82-22.57,8.83-.26,0-.53,0-.77,0,8.23,22.26,5.76,41.79,5.64,42.63-2.05,16.16-8.43,19.57-13.42,19.59Zm-17.71-42.58c1.44,.14,6.59,1.49,6.96,14.4,.43,8.49,2.88,21.18,6.97,22.73l.18,.07,.18,.12s1.52,.89,3.41,.89c4.57-.02,7.8-5.63,9.1-15.78,.03-.21,2.64-21.18-6.61-43.61l-1.45-3.47,3.72,.47s1.53,.18,3.77,.17c5.03-.02,14.23-.99,19.17-7.2,3.61-4.52,4.46-11.23,2.5-19.92-.21-.85-5.67-21.98-23.51-21.91-.75,0-1.53,.05-2.32,.12h-.19s-.17,.01-.17,.01c0,0-.07,0-.19,0-2.39,0-23.75,1.15-40.36,37.54l-2.02,4.43-1.97-4.46c-.11-.25-11.41-25.26-26.88-25.19-4.17,.02-8.43,1.9-12.62,5.59-.56,.56-12.3,12.5-12.85,36.49l-.02,.18c-.05,.52-4.9,53.04,18.23,56.77,.02,0,.11,.01,.24,.01,1.7,0,10.16-.97,10.34-19.3,.05-1.67,.75-15.93,9.07-15.97,1.96,0,4,.81,6.24,2.52,3.16,2.39,4.2,7.11,4.54,9.72l.03,.17c.43,9.08,2.66,19.8,5.44,21.31l.11,.06h0s1.36,.8,2.99,.78c1.25,0,2.33-.48,3.27-1.48,2.17-2.3,4.58-8.22,3.8-23.43-.03-.75-.09-6.94,3.39-10.55,1.89-1.94,4.5-2.75,7.49-2.31Z" style="fill: #1d1d1b;"/>
    <path d="M133.64,20.55c-7.35-11.2-23.73-2.82-23.73-2.82-7.63,3.41,2.22,21.36,2.22,21.36,4.64,7.73,21.93-.43,21.93-.43,9.08-5.1-.42-18.1-.42-18.1m-3.06,15.05s-12.24,5.78-15.55,.3c0,0-6.96-12.74-1.56-15.13,0,0,11.62-5.95,16.83,2,0,0,6.73,9.22,.29,12.84" style="fill: #1d1d1b;"/>
    <path d="M119.61,42.59h0c-3.7,.02-6.25-1.13-7.64-3.42-.27-.51-6.8-12.53-4.74-18.66,.46-1.4,1.34-2.37,2.6-2.94,.06-.04,5.93-2.99,12.18-3.03,5.23-.01,9.19,1.98,11.78,5.93,.22,.29,5.45,7.55,4.18,13.38-.46,2.12-1.76,3.79-3.83,4.96-.09,.05-8.01,3.76-14.53,3.78Zm2.4-27.69c-6.15,.03-11.96,2.97-12.02,3-1.17,.52-1.99,1.43-2.42,2.72-2.01,5.99,4.65,18.25,4.71,18.37,1.3,2.16,3.76,3.25,7.31,3.23,6.45-.02,14.3-3.69,14.37-3.74,1.97-1.11,3.2-2.69,3.64-4.72,1.24-5.68-4.06-13.02-4.11-13.11-2.53-3.83-6.39-5.77-11.49-5.76Zm-1.66,23.54c-2.65,0-4.48-.8-5.46-2.46-.21-.36-4.85-8.9-3.37-13.28,.32-.99,.96-1.7,1.87-2.12,.03-.02,4.22-2.13,8.66-2.14,3.72-.02,6.55,1.4,8.4,4.22,.15,.2,3.89,5.36,2.96,9.53-.33,1.53-1.24,2.73-2.74,3.56-.06,.03-5.69,2.67-10.32,2.69Zm1.71-19.63c-4.35,0-8.47,2.08-8.51,2.11-.81,.37-1.38,1.01-1.68,1.91-1.44,4.23,3.29,12.9,3.34,12.99,.9,1.51,2.62,2.27,5.14,2.26,4.55-.02,10.11-2.62,10.17-2.65,1.39-.77,2.24-1.89,2.55-3.3,.88-4.01-2.87-9.21-2.91-9.27-1.78-2.7-4.51-4.06-8.09-4.05Z" style="fill: #1d1d1b;"/>
  </g>
</svg>